HIERARCHY
ROOT Hips
{
	OFFSET 0.000000 0.000000 0.000000
	CHANNELS 6 Xposition Yposition Zposition Zrotation Yrotation Xrotation 
	JOINT LHipJoint
	{
		OFFSET 0.000000 0.000000 0.000000
		CHANNELS 3 Zrotation Yrotation Xrotation
		JOINT LeftUpLeg
		{
			OFFSET 8.178360 -10.767780 5.035740
			CHANNELS 3 Zrotation Yrotation Xrotation
			JOINT LeftLeg
			{
				OFFSET 14.688660 -40.356780 0.000000
				CHANNELS 3 Zrotation Yrotation Xrotation
				JOINT LeftFoot
				{
					OFFSET 15.373200 -42.237540 0.000000
					CHANNELS 3 Zrotation Yrotation Xrotation
					JOINT LeftToeBase
					{
						OFFSET 0.945840 -2.598660 13.935300
						CHANNELS 3 Zrotation Yrotation Xrotation
						End Site
						{
							OFFSET 0.000000 0.000000 0.000000
						}
					}
				}
			}
		}
	}
	JOINT RHipJoint
	{
		OFFSET 0.000000 0.000000 0.000000
		CHANNELS 3 Zrotation Yrotation Xrotation
		JOINT RightUpLeg
		{
			OFFSET -7.833120 -10.767780 5.035740
			CHANNELS 3 Zrotation Yrotation Xrotation
			JOINT RightLeg
			{
				OFFSET -15.255180 -41.913300 0.000000
				CHANNELS 3 Zrotation Yrotation Xrotation
				JOINT RightFoot
				{
					OFFSET -15.409560 -42.337380 0.000000
					CHANNELS 3 Zrotation Yrotation Xrotation
					JOINT RightToeBase
					{
						OFFSET -0.988380 -2.715540 14.178900
						CHANNELS 3 Zrotation Yrotation Xrotation
						End Site
						{
							OFFSET 0.000000 0.000000 0.000000
						}
					}
				}
			}
		}
	}
	JOINT LowerBack
	{
		OFFSET 0.000000 0.000000 0.000000
		CHANNELS 3 Zrotation Yrotation Xrotation
		JOINT Spine
		{
			OFFSET 0.169620 12.213540 -1.160280
			CHANNELS 3 Zrotation Yrotation Xrotation
			JOINT Spine1
			{
				OFFSET 0.340320 12.293100 -0.256500
				CHANNELS 3 Zrotation Yrotation Xrotation
				JOINT Neck
				{
					OFFSET 0.000000 0.000000 0.000000
					CHANNELS 3 Zrotation Yrotation Xrotation
					JOINT Neck1
					{
						OFFSET -0.325020 10.477440 1.032120
						CHANNELS 3 Zrotation Yrotation Xrotation
						JOINT Head
						{
							OFFSET 0.624420 10.568160 -0.743820
							CHANNELS 3 Zrotation Yrotation Xrotation
							End Site
							{
								OFFSET 0.000000 0.000000 0.000000
							}
						}
					}
				}
				JOINT LeftShoulder
				{
					OFFSET 0.000000 0.000000 0.000000
					CHANNELS 3 Zrotation Yrotation Xrotation
					JOINT LeftArm
					{
						OFFSET 20.174460 7.205340 -1.867260
						CHANNELS 3 Zrotation Yrotation Xrotation
						JOINT LeftForeArm
						{
							OFFSET 29.898000 -0.000000 -0.000000
							CHANNELS 3 Zrotation Yrotation Xrotation
							JOINT LeftHand
							{
								OFFSET 20.901360 -0.000000 -0.000000
								CHANNELS 3 Zrotation Yrotation Xrotation
								JOINT LeftFingerBase
								{
									OFFSET 0.000000 0.000000 0.000000
									CHANNELS 3 Zrotation Yrotation Xrotation
									JOINT LeftHandIndex1
									{
										OFFSET 4.291560 -0.000000 -0.000000
										CHANNELS 3 Zrotation Yrotation Xrotation
										End Site
										{
											OFFSET 0.000000 0.000000 0.000000
										}
									}
								}
								JOINT LThumb
								{
									OFFSET 0.000000 0.000000 0.000000
									CHANNELS 3 Zrotation Yrotation Xrotation
									End Site
									{
										OFFSET 0.000000 0.000000 0.000000
									}
								}
							}
						}
					}
				}
				JOINT RightShoulder
				{
					OFFSET 0.000000 0.000000 0.000000
					CHANNELS 3 Zrotation Yrotation Xrotation
					JOINT RightArm
					{
						OFFSET -18.819600 8.244300 -2.427900
						CHANNELS 3 Zrotation Yrotation Xrotation
						JOINT RightForeArm
						{
							OFFSET -31.451400 -0.000000 -0.000000
							CHANNELS 3 Zrotation Yrotation Xrotation
							JOINT RightHand
							{
								OFFSET -20.665020 -0.000000 -0.000000
								CHANNELS 3 Zrotation Yrotation Xrotation
								JOINT RightFingerBase
								{
									OFFSET 0.000000 0.000000 0.000000
									CHANNELS 3 Zrotation Yrotation Xrotation
									JOINT RightHandIndex1
									{
										OFFSET -3.735180 -0.000000 -0.000000
										CHANNELS 3 Zrotation Yrotation Xrotation
										End Site
										{
											OFFSET 0.000000 0.000000 0.000000
										}
									}
								}
								JOINT RThumb
								{
									OFFSET 0.000000 0.000000 0.000000
									CHANNELS 3 Zrotation Yrotation Xrotation
									End Site
									{
										OFFSET 0.000000 0.000000 0.000000
									}
								}
							}
						}
					}
				}
			}
		}
	}
}
MOTION
Frames:	9
Frame Time:	0.0333333
71.094102 107.254938 -118.086996 6.456835 4.947242 2.247382 -3.057787 2.154341 3.804288 -24.663845 -0.987160 6.492319 -1.586233 -0.265046 2.160578 0.557994 -7.551436 3.931878 0.090500 -1.940600 -5.341500 1.013214 -0.773967 0.231129 13.180901 3.699301 -31.171766 -1.958172 -10.246607 28.914442 0.969938 -7.035161 4.734836 -0.154600 -2.533600 6.982700 -5.675228 -1.433334 8.727807 0.548345 -2.297031 1.520585 2.574239 -1.393729 -3.108319 -12.198840 -7.338283 -16.851538 7.657569 -7.640021 14.544583 4.451700 -3.740500 12.324400 -6.188783 -1.336712 -1.362462 -76.084686 -6.636768 24.917886 20.040770 -27.975014 -6.150508 -1.202280 -2.319528 3.104440 20.708654 23.081747 9.749100 -7.125000 0.000000 0.000000 -8.724900 56.891500 -2.555900 5.004738 1.850337 -1.025060 84.738453 -4.577761 11.167709 -15.660290 23.298858 -3.457603 0.393205 -0.166798 7.055146 -15.350915 8.278008 -2.356400 7.125000 0.000000 0.000000 8.023300 -21.308300 4.603700 
71.054970 107.188716 -115.122510 6.749561 4.852902 2.782553 -3.039789 2.185973 3.873841 -24.998747 -0.595613 7.572987 -1.571133 -0.274711 2.181652 0.495830 -6.735348 3.411798 0.072100 -1.732000 -4.765600 1.109775 -0.737592 0.171944 12.614830 5.292201 -30.948565 -0.922323 -8.371117 23.084877 1.151518 -7.465535 2.394278 -0.052700 -1.482100 4.076300 -5.801336 -1.552025 8.099081 0.549718 -2.427595 1.467062 2.614966 -1.483292 -2.832054 -12.353705 -7.405210 -17.111521 7.677989 -7.657467 14.602866 4.488200 -3.754600 12.413000 -6.208085 -1.365087 -1.350540 -76.083376 -7.237132 24.941754 19.900907 -27.776918 -6.064952 -1.170519 -2.272195 3.179202 20.183523 22.372391 9.221900 -7.125000 0.000000 0.000000 -8.981600 56.004400 -2.438600 5.015851 1.848770 -1.023119 84.779369 -4.483189 10.663002 -15.166927 22.613381 -3.241828 0.395272 -0.171003 7.860116 -15.373081 7.983760 -2.277900 7.125000 0.000000 0.000000 8.012400 -21.610900 4.541800 
70.818966 107.045424 -111.974400 6.975444 5.070552 3.024057 -2.970300 2.264707 3.957402 -25.031891 -0.425613 9.107246 -1.545377 -0.290437 2.195735 0.458643 -6.459743 3.512842 0.120300 -2.235700 -6.157500 1.158571 -0.756851 0.145405 12.650069 6.115925 -30.450301 -0.468995 -7.414243 20.231191 1.476919 -8.593536 -0.447430 -0.030900 1.134600 -3.119400 -5.968208 -1.620975 7.730318 0.519334 -2.516772 1.403356 2.617412 -1.537262 -2.741955 -12.240113 -7.436875 -17.274670 7.585651 -7.733571 14.830169 4.420300 -3.785600 12.542500 -6.216526 -1.373418 -1.355683 -76.091675 -7.175587 25.275473 19.868990 -27.741068 -6.051249 -1.159400 -2.248144 3.715146 19.863929 22.187725 8.991300 -7.125000 0.000000 0.000000 -9.264400 55.731600 -2.454800 5.030242 1.818802 -1.036016 85.070213 -4.632480 9.654587 -14.715431 21.979627 -3.050272 0.387315 -0.185855 8.721453 -15.209203 7.995881 -2.258600 7.125000 0.000000 0.000000 8.133100 -21.595600 4.614500 
70.614270 106.949100 -108.817254 7.294769 4.672382 3.149598 -2.864651 2.341572 4.038602 -25.109581 0.330599 10.526091 -1.492778 -0.315648 2.225529 0.468082 -6.990139 3.789131 0.434600 -4.230400 -11.725900 1.094909 -0.795063 0.153885 13.742860 4.851726 -30.965035 -0.631117 -7.784369 21.294758 1.341904 -8.199132 1.360178 -0.006500 -0.521600 1.433300 -6.195732 -1.568747 7.711869 0.513072 -2.491515 1.208990 2.694430 -1.508367 -3.128177 -12.402030 -7.335166 -16.943448 7.622550 -7.578944 14.802111 4.494000 -3.740600 12.460600 -6.248092 -1.350916 -1.376229 -76.430933 -6.515796 25.379248 19.512064 -27.310619 -5.841900 -1.225167 -2.229251 3.971639 20.449167 22.034899 9.231200 -7.125000 0.000000 0.000000 -8.520900 55.692100 -2.247500 5.047599 1.802329 -1.054446 85.189984 -5.116612 9.022081 -14.392648 21.498179 -2.910829 0.392856 -0.178629 9.437307 -15.313186 7.426546 -2.113100 7.125000 0.000000 0.000000 8.071400 -22.188400 4.468900 
70.312038 106.790760 -105.340428 7.141783 4.424446 2.663671 -2.693206 2.505834 4.138318 -24.478650 1.169292 12.665467 -1.426020 -0.348267 2.247812 0.443338 -7.347769 5.493577 0.580300 -4.877800 -13.560300 1.049725 -0.903892 0.195938 15.113845 4.486987 -29.569400 -0.904625 -8.338387 23.010247 1.376684 -8.517591 2.575305 -0.007000 -0.540000 1.483800 -5.859964 -1.457615 7.759298 0.503312 -2.305455 1.284237 2.417425 -1.421511 -3.110303 -12.338832 -7.435867 -16.975798 7.640033 -7.759827 15.018530 4.466700 -3.811200 12.582700 -6.280510 -1.299612 -1.396428 -76.737427 -5.537137 25.347554 19.354226 -27.142347 -5.755826 -1.228889 -2.205264 4.166172 20.456305 21.646632 9.090900 -7.125000 0.000000 0.000000 -8.347800 55.276000 -2.116800 5.074940 1.758922 -1.053954 85.514586 -5.141447 7.994027 -13.914968 20.792305 -2.711135 0.406250 -0.167289 10.214520 -15.518630 6.637630 -1.915200 7.125000 0.000000 0.000000 7.940000 -23.010000 4.244200 
69.888198 107.177880 -101.588460 6.631917 5.102804 2.522959 -2.539144 2.685396 4.240794 -23.222724 0.840984 14.654766 -1.389903 -0.375157 2.219041 0.448573 -7.658366 8.994986 0.958200 -6.233000 -17.462000 1.002480 -1.036542 0.246467 16.192564 4.496093 -27.877778 -1.001089 -8.412856 23.284433 1.233276 -8.819576 7.038415 -0.542500 -4.719200 13.109300 -5.271683 -1.818109 7.425415 0.757698 -2.714967 1.143787 2.528294 -1.626042 -3.206132 -12.651572 -7.281099 -16.822937 7.572566 -7.467377 15.255671 4.548100 -3.733300 12.628600 -6.316961 -1.216211 -1.446644 -77.912690 -3.825960 24.223153 19.045189 -26.783619 -5.569375 -1.265031 -2.262019 4.524765 20.628076 22.299691 9.431000 -7.125000 0.000000 0.000000 -8.447900 56.050800 -2.301700 5.117194 1.677914 -1.071144 85.386981 -5.416629 7.277314 -13.498837 20.186939 -2.547905 0.387383 -0.195875 11.183914 -15.180586 7.035341 -1.988100 7.125000 0.000000 0.000000 8.180300 -22.589000 4.454800 
69.553458 107.675772 -97.795554 5.101860 4.229448 2.192761 -2.637056 2.556136 4.177656 -21.212681 0.592452 11.032815 -0.851546 3.083307 11.584493 0.608884 -8.579530 11.774641 0.991700 -6.338100 -17.768500 1.078807 -1.065078 0.339899 18.640827 3.919096 -25.737549 -0.975458 -8.194778 22.889224 1.117070 -8.764041 8.930568 -0.816800 -5.766800 16.109400 -3.519344 -1.609681 7.032964 1.076632 -2.270079 1.020144 2.040634 -1.382245 -3.335362 -12.692345 -7.192059 -16.960859 7.361074 -7.354508 16.050665 4.511500 -3.729500 12.988500 -6.390377 -1.125575 -1.489053 -79.192265 -2.276259 22.673033 18.086510 -25.548006 -5.017083 -1.332005 -2.051138 5.256155 20.978257 19.491932 8.530300 -7.125000 0.000000 0.000000 -6.892500 53.035200 -1.367700 5.184609 1.621669 -1.089092 85.456571 -5.587411 5.942864 -13.141365 19.651663 -2.405625 0.391936 -0.200970 11.906294 -15.286136 6.760930 -1.926300 7.125000 0.000000 0.000000 8.108200 -22.867500 4.362600 
69.155502 108.182094 -94.162794 4.278050 2.516400 1.685996 -2.638755 2.284855 3.863308 -20.195915 0.053796 6.547272 0.377109 6.785820 22.042297 0.816355 -7.010812 18.084094 0.312100 -3.591500 -9.930100 1.118019 -1.053097 0.512376 20.393768 2.975690 -23.458285 -0.994570 -8.108350 23.090926 0.692289 -6.041521 7.487656 -0.916000 -6.098300 17.069900 -2.719874 -1.069669 7.054514 1.267917 -1.505135 0.924085 1.803675 -0.959928 -3.626901 -12.646529 -7.151131 -16.623319 7.218486 -7.365250 16.332213 4.447300 -3.763000 13.034000 -6.453615 -1.006722 -1.537639 -80.344131 -0.426233 21.348365 17.222986 -24.454709 -4.523713 -1.467866 -2.397973 5.685584 21.460203 24.011000 10.572700 -7.125000 0.000000 0.000000 -8.246700 58.175700 -2.670200 5.249531 1.573152 -1.097392 85.453093 -5.676837 4.794620 -12.894832 19.276263 -2.310000 0.378188 -0.203667 12.543810 -14.953400 6.617646 -1.843500 7.125000 0.000000 0.000000 8.365600 -23.025300 4.473400 
68.685906 108.613764 -90.743760 3.342250 1.773277 1.391147 -2.529632 2.010917 3.435680 -18.516896 -0.513643 1.298322 2.133184 10.014650 32.037720 1.436467 -7.970291 26.243865 0.149200 -2.488700 -6.858400 1.141900 -1.045752 0.709699 22.194258 0.992763 -21.348500 -0.875578 -7.669454 22.218939 0.209933 -3.331939 7.282654 -1.089100 -6.632300 18.630500 -1.806689 -0.777552 6.931833 1.407595 -1.044053 0.867194 1.393501 -0.701132 -3.679075 -12.392117 -7.268032 -16.526918 7.316824 -7.679145 16.791574 4.401200 -3.869800 13.245600 -6.559571 -0.911231 -1.549487 -81.156975 0.513345 19.692260 15.922713 -22.678568 -3.832170 -1.510437 -2.393874 7.935421 20.142422 24.394453 10.027200 -7.125000 0.000000 0.000000 -9.959800 58.307400 -3.263000 5.302280 1.568154 -1.099884 85.529335 -5.426799 5.290779 -13.012428 19.431771 -2.352063 0.375424 -0.183981 12.052866 -14.740027 6.336732 -1.736200 7.125000 0.000000 0.000000 8.540300 -23.335700 4.507200 
